<?xml version="1.0" encoding="UTF-8" standalone="no"?>
<svg
   xmlns="http://www.w3.org/2000/svg"
   viewBox="0 0 16 16">
  <defs
     id="defs3051">
    <style
       type="text/css"
       id="current-color-scheme">
      .ColorScheme-Text {
        color:#eff0f1;
      }
      </style>
  </defs>
  <path
     id="path4"
     style="fill:currentColor;fill-opacity:1;stroke:none"
     class="ColorScheme-Text"
     d="M 8 2 C 6.6192881 2 5.5 3.1192881 5.5 4.5 C 5.5 5.8807119 6.6192881 7 8 7 C 9.380712 7 10.5 5.8807119 10.5 4.5 C 10.5 3.1192881 9.380712 2 8 2 z M 8.0449219 8 C 6.3826047 8 4.9091535 8.7282696 4 9.8515625 L 4 14 L 12 14 L 12 9.7460938 C 11.085335 8.6836826 9.6535314 8 8.0449219 8 z M 8.0449219 9 C 9.2067771 9.00117 10.264634 9.4376339 11 10.144531 L 11 13 L 5 13 L 5 10.234375 C 5.737575 9.4751975 6.8349228 9.0012179 8.0449219 9 z " />
</svg>
