<?xml version="1.0" encoding="UTF-8" standalone="no"?>
<!DOCTYPE svg PUBLIC "-//W3C//DTD SVG 1.0//EN"
"http://www.w3.org/TR/2001/REC-SVG-20010904/DTD/svg10.dtd">
<!-- Created with Inkscape (http://www.inkscape.org/) -->
<svg
   xmlns="http://www.w3.org/2000/svg"
   xmlns:xlink="http://www.w3.org/1999/xlink"
   version="1.0"
   x="0.0000000"
   y="0.0000000"
   width="160.00000"
   height="160.00000"
   id="svg1">
  <defs
     id="defs3">
    <linearGradient
       id="linearGradient964">
      <stop
         style="stop-color:#00007f;stop-opacity:0.49803922;"
         offset="0.0000000"
         id="stop965" />
      <stop
         style="stop-color:#ffffff;stop-opacity:0.0000000;"
         offset="1.0000000"
         id="stop966" />
    </linearGradient>
    <linearGradient
       id="linearGradient956">
      <stop
         style="stop-color:#ffffff;stop-opacity:1.0000000;"
         offset="0.0000000"
         id="stop957" />
      <stop
         style="stop-color:#ffffff;stop-opacity:0.0000000;"
         offset="1.0000000"
         id="stop958" />
    </linearGradient>
    <linearGradient
       id="linearGradient952">
      <stop
         style="stop-color:#5142ff;stop-opacity:1.0000000;"
         offset="0.0000000"
         id="stop953" />
      <stop
         style="stop-color:#45248c;stop-opacity:1.0000000;"
         offset="1.0000000"
         id="stop954" />
    </linearGradient>
    <linearGradient
       id="linearGradient934">
      <stop
         style="stop-color:#00069f;stop-opacity:1.0000000;"
         offset="0.0000000"
         id="stop935" />
      <stop
         style="stop-color:#129cff;stop-opacity:1.0000000;"
         offset="1.0000000"
         id="stop936" />
    </linearGradient>
    <linearGradient
       id="linearGradient928">
      <stop
         style="stop-color:#007dff;stop-opacity:1.0000000;"
         offset="0.0000000"
         id="stop929" />
      <stop
         style="stop-color:#ffffff;stop-opacity:1.0000000;"
         offset="1.0000000"
         id="stop930" />
    </linearGradient>
    <linearGradient
       x1="0.50184500"
       y1="0.10937500"
       x2="0.62730628"
       y2="0.90625000"
       id="linearGradient931"
       xlink:href="#linearGradient928"
       spreadMethod="pad" />
    <linearGradient
       x1="0.46792454"
       y1="0.15625000"
       x2="0.52830189"
       y2="0.79687500"
       id="linearGradient932"
       xlink:href="#linearGradient934" />
    <radialGradient
       cx="0.55384618"
       cy="0.94531250"
       r="0.53637272"
       fx="0.56434667"
       fy="0.92968750"
       id="radialGradient933"
       xlink:href="#linearGradient956"
       gradientUnits="objectBoundingBox" />
    <linearGradient
       x1="0.44102564"
       y1="0.14062500"
       x2="0.70256412"
       y2="0.62500000"
       id="linearGradient951"
       xlink:href="#linearGradient952" />
    <radialGradient
       cx="0.44404331"
       cy="0.54629630"
       r="0.55646455"
       fx="0.44404331"
       fy="0.54629636"
       id="radialGradient961"
       xlink:href="#linearGradient956" />
    <radialGradient
       cx="0.50000000"
       cy="0.50000000"
       r="0.50000000"
       fx="0.50000000"
       fy="0.50000000"
       id="radialGradient963"
       xlink:href="#linearGradient964" />
    <radialGradient
       id="radialGradient967"
       xlink:href="#linearGradient964" />
    <linearGradient
       id="linearGradient971"
       xlink:href="#linearGradient964" />
    <linearGradient
       x1="0.49593499"
       y1="0.28125000"
       x2="0.63414639"
       y2="0.85937506"
       id="linearGradient972"
       xlink:href="#linearGradient964" />
    <radialGradient
       cx="0.50000000"
       cy="0.50000000"
       r="0.50000000"
       fx="0.50000000"
       fy="0.50000000"
       id="radialGradient973"
       xlink:href="#linearGradient964" />
    <radialGradient
       id="radialGradient974"
       xlink:href="#linearGradient964" />
  </defs>
  <g
     transform="matrix(0.376474,0.000000,0.000000,0.376474,-56.47113,-117.1257)"
     id="g885">
    <path
       d="M 470.00000 309.86218 A 120.00000 15.000000 0 1 0 230.00000,309.86218 A 120.00000 15.000000 0 1 0 470.00000 309.86218 z"
       transform="matrix(1.549599,0.000000,0.000000,2.536570,-156.4079,-154.4498)"
       style="fill:url(#radialGradient963);fill-opacity:0.75000000;fill-rule:evenodd;stroke:url(#radialGradient967);stroke-width:1.0000000pt;"
       id="path870" />
    <path
       d="M 173.75000,183.61218 C 173.75000,111.75830 251.96199,58.612183 353.75000,58.612183 C 394.35755,58.612183 429.52443,65.602647 460.00000,81.112183 C 486.72218,72.914043 520.88138,65.588134 556.25000,57.362183 C 533.01237,74.851873 514.58250,91.729732 498.75000,106.11218 C 524.54923,128.20813 535.01626,152.61642 535.00000,183.61218 C 534.97272,214.51093 521.91254,239.05150 496.25000,261.11218 C 512.39206,275.76010 534.90746,294.48027 558.75000,312.36218 C 558.75000,312.36218 511.76268,301.72047 462.50000,284.86218 C 431.52772,301.27196 395.63916,309.86218 353.75000,309.86218 C 252.13545,309.86217 174.03096,254.34001 173.75000,183.61218 z "
       transform="translate(-2.798240,324.1750)"
       style="fill:url(#linearGradient951);fill-rule:evenodd;stroke-width:1.0000000pt;"
       id="path871" />
    <path
       d="M 531.48991,184.24282 C 531.48989,172.24861 530.31156,159.78639 525.71474,148.81888 L 248.03150,148.81888 L 248.03150,131.10234 L 212.59843,166.53541 L 248.03150,201.96848 L 248.03150,184.25195 L 460.62992,184.25195 L 460.62992,166.53541 L 496.06299,201.96848 L 460.62992,237.40155 L 460.62992,219.68502 L 185.29814,219.68502 C 207.14698,270.57370 273.56621,307.00858 353.71260,307.00859 C 393.95863,307.00860 430.95524,297.55593 460.71260,281.78984 C 508.04292,297.98686 548.58760,307.63359 548.58760,307.63359 C 525.68032,290.45313 506.87772,275.26943 491.36885,261.19609 C 515.76857,240.22100 531.17512,213.26921 531.48991,184.24282 z "
       transform="translate(-2.798240,324.1750)"
       style="fill:url(#linearGradient932);fill-rule:evenodd;stroke-width:1.0000000pt;"
       id="path872" />
    <path
       d="M 248.03150,201.96848 L 212.59843,166.53541 L 248.03150,131.10234 L 248.03150,148.81888 L 525.71474,148.81888 C 519.01510,132.83426 507.74102,119.07672 493.04035,106.48621 C 508.25181,92.667924 526.62048,77.789854 548.94660,60.986214 C 514.96535,68.889484 485.49558,76.797154 459.82160,84.673714 C 430.54147,69.772544 394.58628,60.861214 355.57160,60.861214 C 257.77633,60.861204 177.16535,116.13858 177.16535,184.25195 C 177.21369,196.42029 180.53228,208.58473 185.29814,219.68502 L 460.62992,219.68502 L 460.62992,237.40155 L 496.06299,201.96848 L 460.62992,166.53541 L 460.62992,184.25195 L 248.03150,184.25195 L 248.03150,201.96848 z "
       transform="translate(-2.798240,324.1750)"
       style="fill:url(#linearGradient931);fill-rule:evenodd;stroke-width:1.0000000pt;"
       id="path873" />
    <path
       d="M 354.36414,84.396593 C 346.09735,84.441734 337.93061,85.028824 329.95042,86.029834 L 320.91965,128.15165 L 267.01561,128.15165 L 267.01561,154.54694 L 315.07770,154.54694 L 302.55197,211.78941 L 249.99999,211.78941 L 249.99999,238.00030 L 297.01616,238.00030 L 290.00073,270.05925 C 297.18749,272.83234 304.67222,275.20602 312.47562,277.01370 L 320.91965,238.00030 L 364.67044,238.00030 L 355.25700,281.46560 C 363.27473,281.31626 371.47727,280.53709 379.67071,279.25282 L 388.70150,238.00030 L 441.99327,238.00030 L 441.99327,211.78941 L 394.51793,211.78941 L 406.76305,154.54694 L 459.18747,154.54694 L 459.18747,128.15165 L 412.57947,128.15165 L 419.62042,95.592198 C 412.43432,92.706703 404.97436,90.351758 397.12001,88.611409 L 388.39537,128.15165 L 344.79764,128.15165 L 354.36414,84.396593 z M 339.28733,154.54694 L 382.73199,154.54694 L 370.48687,211.78941 L 326.73608,211.78941 L 339.28733,154.54694 z "
       transform="translate(-2.798240,324.1750)"
       style="font-size:120.00000;fill:#00ff00;stroke:#02007f;stroke-width:5.0000000;stroke-linecap:round;stroke-linejoin:round;font-family:Bitstream Vera Sans;text-anchor:middle;"
       id="path874" />
    <path
       d="M 182.50000,182.36218 C 182.50000,116.10731 263.83607,68.449845 355.04870,68.449845 C 391.43729,68.449845 422.95046,74.895598 450.25974,89.196599 C 474.20559,81.637275 504.81578,74.882216 536.50974,67.297248 C 515.68641,83.424105 499.17133,98.986806 484.98377,112.24854 C 508.10256,132.62273 526.26457,153.78168 526.25000,182.36218 C 526.22556,210.85324 506.74630,240.77052 483.75000,261.11218 C 498.21496,274.61871 517.38461,285.93860 538.75000,302.42712 C 538.75000,302.42712 502.89448,291.65684 458.75000,276.11218 C 430.99562,291.24328 388.78704,302.36218 351.25000,302.36218 C 260.19281,302.36217 182.75177,247.57875 182.50000,182.36218 z "
       transform="translate(-2.798240,324.1750)"
       style="fill:url(#radialGradient933);fill-rule:evenodd;stroke-width:1.0000000pt;"
       id="path875" />
    <path
       d="M 180.00000,178.61218 C 180.00000,112.35731 263.78737,63.612183 355.00000,63.612183 C 391.38859,63.612183 433.94072,74.311182 461.25000,88.612183 C 485.19585,81.052859 502.05604,74.947151 533.75000,67.362183 C 512.92667,83.489040 501.68756,92.850449 487.50000,106.11218 C 510.61879,126.48637 485.00000,94.862183 500.00000,117.36218 C 502.50000,142.36219 488.75000,191.11218 352.50000,163.61218 C 216.25000,137.36218 180.25177,243.82875 180.00000,178.61218 z "
       transform="translate(-2.798240,324.1750)"
       style="fill:url(#radialGradient961);fill-rule:evenodd;stroke-width:1.0000000pt;"
       id="path876" />
    <rect
       width="424.99631"
       height="424.99631"
       x="150.00000"
       y="311.11218"
       style="fill:none;fill-opacity:0.75000000;fill-rule:evenodd;stroke-width:1.2625000;"
       id="rect877" />
  </g>
</svg>
